<?xml version="1.0" encoding="UTF-8"?>
<!-- Simple quill-and-ink logo SVG approximating the provided image -->
<svg xmlns="http://www.w3.org/2000/svg" width="512" height="512" viewBox="0 0 512 512">
  <rect width="100%" height="100%" fill="#ffffff"/>
  <g transform="translate(60,40) scale(0.8)">
    <path d="M325.7 28.3c-28.6 4.4-73.6 29.5-131.4 87.3l-9.3 9.3c-4.8 4.8-12.6 4.8-17.4 0l-19.5-19.5c-4.8-4.8-12.6-4.8-17.4 0L22.3 240.9c-9.9 9.9-10.6 25.6-1.8 36.6l99.6 126.7c9 11.5 25.5 14.3 37.6 6.4l60.4-38.1c52.1-32.9 103.2-84.1 136.1-136.2l36.1-57.6c7.9-12.1 5.1-28.6-6.4-37.6L388.6 55.7c-11-8.8-26.7-8.1-36.9 2.6l-26 30.1c-4.8 5.5-13.5 6.1-18.9 1.3l-13-12.4c-4.5-4.3-5.1-11.3-1.3-16.2l25.9-34.3c8.7-11.6 8.6-27.9-.1-39.3C354 2.7 340.6 22.7 325.7 28.3z" fill="#111111"/>
    <rect x="28" y="320" width="200" height="24" rx="4" fill="#666666"/>
    <rect x="48" y="352" width="160" height="12" rx="3" fill="#cccccc"/>
  </g>
</svg>
